<svg width="24" height="24" viewBox="0 0 24 24" fill="none" xmlns="http://www.w3.org/2000/svg">
<path d="M16 17.18L16 6.81999C16 6.02999 15.13 5.54999 14.46 5.97999L6.32 11.16C6.17749 11.2502 6.0601 11.3749 5.97876 11.5227C5.89742 11.6704 5.85476 11.8363 5.85476 12.005C5.85476 12.1736 5.89742 12.3396 5.97876 12.4873C6.0601 12.635 6.17749 12.7598 6.32 12.85L14.46 18.02C14.6108 18.1175 14.7852 18.1726 14.9647 18.1793C15.1442 18.186 15.3222 18.1441 15.4799 18.0581C15.6376 17.9721 15.7691 17.8451 15.8607 17.6906C15.9522 17.536 16.0004 17.3596 16 17.18Z" fill="white"/>
</svg>
